<?xml version="1.0" encoding="utf-8"?>
<svg xmlns="http://www.w3.org/2000/svg" viewBox="111.08 48.487 1001.937 299.038" xmlns:bx="https://boxy-svg.com" width="1001.937px" height="299.038px"><defs><bx:export><bx:file format="svg" path="Elata-white-logotype.svg"/></bx:export><linearGradient id="paint0_linear_428_10380" x1="48.0501" y1="49.9982" x2="3.31739" y2="49.9982" gradientUnits="userSpaceOnUse" gradientTransform="matrix(6.14975, 0, 0, 6.14975, 68.304322, -109.410921)"><stop stop-color="#F8F8F8"/><stop offset="1" stop-color="#707070"/></linearGradient><linearGradient id="paint1_linear_428_10380" x1="27.2099" y1="30.4056" x2="67.4762" y2="30.4056" gradientUnits="userSpaceOnUse" gradientTransform="matrix(6.14975, 0, 0, 6.14975, 68.304322, -109.410921)"><stop stop-color="#EAEAEA"/><stop offset="1" stop-color="#A4A4A4"/></linearGradient><linearGradient id="paint2_linear_428_10380" x1="27.2104" y1="69.5897" x2="67.4767" y2="69.5897" gradientUnits="userSpaceOnUse" gradientTransform="matrix(6.14975, 0, 0, 6.14975, 68.304322, -109.410921)"><stop stop-color="#EAEAEA"/><stop offset="1" stop-color="#A4A4A4"/></linearGradient><linearGradient id="paint3_linear_428_10380" x1="24.0064" y1="49.9967" x2="44.2244" y2="49.9967" gradientUnits="userSpaceOnUse" gradientTransform="matrix(6.14975, 0, 0, 6.14975, 68.304322, -109.410921)"><stop stop-color="#F6F6F6"/><stop offset="1" stop-color="#B7B7B7"/></linearGradient><linearGradient id="paint4_linear_428_10380" x1="33.9595" y1="49.9982" x2="61.0116" y2="49.9982" gradientUnits="userSpaceOnUse" gradientTransform="matrix(6.14975, 0, 0, 6.14975, 68.304322, -109.410921)"><stop offset="0.105" stop-color="#E8E8E8"/><stop offset="1" stop-color="#5D5D5D"/></linearGradient></defs><path d="M 578.397 204.029 L 623.358 203.906 C 609.085 233.118 586.472 247.815 555.508 247.938 C 544.205 247.938 533.166 245.356 522.392 240.005 C 510.412 234.04 500.991 225.984 493.992 215.775 C 486.047 203.906 482.012 190.069 481.877 174.326 C 481.877 157.05 486.182 142.41 495.068 130.42 C 502.473 120.33 512.435 112.64 524.95 107.42 C 535.318 102.93 545.816 100.65 556.32 100.65 C 568.3 100.65 579.203 102.93 589.03 107.54 C 601.281 113.2 610.837 122.05 617.701 133.92 C 625.917 148.19 629.951 166.52 630.086 188.839 L 524.28 189.085 C 526.432 196.219 529.661 201.631 533.566 205.013 C 538.953 209.564 546.628 211.839 556.584 211.839 C 563.318 212.024 570.452 209.318 578.397 204.029 Z M 523.339 160.43 L 588.489 160.31 C 585.796 152.92 581.085 147.08 574.357 143.08 C 568.3 139.46 561.701 137.67 554.567 137.67 C 547.704 137.67 541.647 139.27 536.395 142.41 C 529.661 146.28 525.356 152.37 523.339 160.43 Z" fill="#F7F7F7" style="stroke-width: 1;"/><path d="M 691.608 244.187 L 650.952 244.31 L 650.417 59.2 L 691.073 59.08 L 691.608 244.187 Z" fill="#F7F7F7" style="stroke-width: 1;"/><path d="M 862.04 103.91 L 862.44 243.203 L 822.06 243.388 L 822.06 228.013 C 809.94 239.206 795.939 244.679 779.919 244.679 C 761.211 244.679 745.326 237.853 732.264 223.954 C 719.208 210.118 712.616 193.267 712.616 173.65 C 712.616 156.25 718.673 140.38 730.788 125.99 C 744.379 109.81 761.346 101.76 781.671 101.76 C 789.481 101.76 796.75 103.24 803.21 106.19 C 809.67 109.14 815.73 113.75 820.98 119.78 L 820.98 104.16 L 862.04 103.91 Z M 753.942 173.465 C 753.942 183.858 757.441 192.099 764.575 198.372 C 771.174 204.214 779.113 207.166 788.67 207.166 C 797.691 207.166 805.37 204.46 811.69 199.048 C 818.82 193.021 822.46 184.535 822.46 173.65 C 822.46 163.01 819.23 154.52 812.76 148.44 C 806.31 142.29 798.226 139.15 788.399 139.27 C 779.113 139.27 771.303 142.1 764.981 147.94 C 757.441 153.97 753.942 162.58 753.942 173.465 Z" fill="#F7F7F7" style="stroke-width: 1;"/><path d="M 936.74 243.511 L 895.15 243.634 L 894.88 134.29 L 877.65 134.29 L 877.52 103.91 L 894.75 103.91 L 894.61 58.53 L 936.21 58.4 L 936.34 103.79 L 955.32 103.79 L 955.46 134.17 L 936.48 134.17 L 936.74 243.511 Z" fill="#F7F7F7" style="stroke-width: 1;"/><path d="M 1112.16 103.24 L 1112.57 242.527 L 1072.18 242.711 L 1072.18 227.337 C 1060.06 238.529 1046.06 244.003 1030.04 244.003 C 1011.33 244.003 995.45 237.176 982.39 223.278 C 969.33 209.441 962.73 192.591 962.73 172.973 C 962.73 155.57 968.79 139.7 980.91 125.31 C 994.5 109.14 1011.46 101.08 1031.79 101.08 C 1039.6 101.08 1046.87 102.56 1053.33 105.51 C 1059.79 108.46 1065.85 113.07 1071.1 119.1 L 1071.1 103.48 L 1112.16 103.24 Z M 1004.07 172.666 C 1004.07 183.059 1007.56 191.238 1014.7 197.572 C 1021.29 203.353 1029.24 206.366 1038.79 206.366 C 1047.81 206.366 1055.48 203.66 1061.81 198.249 C 1068.94 192.222 1072.58 183.735 1072.58 172.85 C 1072.58 162.21 1069.35 153.72 1062.89 147.64 C 1056.43 141.42 1048.35 138.35 1038.52 138.47 C 1029.24 138.47 1021.42 141.3 1015.1 147.08 C 1007.56 153.29 1003.93 161.9 1004.07 172.666 Z" fill="#F7F7F7" style="stroke-width: 1;"/><path d="M 592.696 340.984 L 578.963 340.984 L 578.828 278.933 L 592.019 278.933 C 597.812 278.933 602.388 280.409 605.752 283.361 C 609.115 286.313 610.868 290.372 610.868 295.353 C 610.868 298.428 610.327 301.011 609.115 303.04 C 608.175 304.639 606.692 306.238 604.54 307.591 C 607.504 308.821 609.927 310.543 611.538 313.126 C 613.156 315.524 614.097 318.661 614.097 322.166 C 614.097 327.824 612.621 332.252 609.657 335.449 C 606.293 338.955 600.506 340.984 592.696 340.984 Z M 584.75 284.837 L 584.75 305.869 L 588.256 305.869 C 593.907 305.869 597.948 305.07 600.506 303.717 C 603.329 302.056 604.675 299.104 604.675 294.923 C 604.675 291.479 603.464 289.019 601.176 287.42 C 598.618 285.698 594.577 284.837 588.926 284.837 L 586.638 284.837 C 586.503 284.837 586.232 284.837 585.833 284.837 C 585.427 284.714 585.021 284.837 584.75 284.837 Z M 584.885 311.404 L 585.021 334.957 C 594.442 334.957 600.635 334.281 603.329 333.051 C 606.563 331.575 608.175 328.193 608.175 323.088 C 608.175 319.46 607.234 316.877 605.352 315.032 C 603.734 313.372 601.041 312.326 597.406 311.773 C 594.577 311.65 590.408 311.404 584.885 311.404 Z" fill="#F7F7F7" style="stroke-width: 1;"/><path d="M 622.577 278.81 L 628.499 278.81 L 628.499 288.527 L 622.577 288.527 L 622.577 278.81 Z M 628.499 294 L 628.635 340.861 L 622.706 340.861 L 622.577 294 L 628.499 294 Z" fill="#F7F7F7" style="stroke-width: 1;"/><path d="M 635.762 317.431 C 635.762 313.679 636.568 310.051 638.321 306.423 C 640.202 302.241 642.896 298.981 646.26 296.583 C 650.165 293.754 654.747 292.401 660.128 292.401 C 666.05 292.401 671.437 294.554 676.283 298.858 C 681.535 303.717 684.229 309.62 684.229 316.754 C 684.229 323.642 681.935 329.423 677.359 334.281 C 672.513 339.385 666.456 341.907 659.051 341.907 C 653.265 341.907 648.013 339.508 643.302 334.773 C 638.321 329.976 635.762 324.134 635.762 317.431 Z M 642.09 317.185 C 642.09 323.211 643.972 327.947 647.607 331.452 C 650.977 334.65 655.146 336.126 659.992 336.126 C 664.838 336.126 668.879 334.527 672.243 331.452 C 676.012 327.947 677.765 323.088 677.765 317 C 677.765 311.773 676.148 307.345 673.054 303.84 C 669.684 300.088 665.38 298.182 659.857 298.182 C 655.282 298.182 651.377 299.658 648.013 302.61 C 644.108 306.115 642.09 310.973 642.09 317.185 Z" fill="#F7F7F7" style="stroke-width: 1;"/><path d="M 688.269 325.794 L 694.456 325.794 C 694.456 328.623 695.132 330.899 696.344 332.805 C 697.961 335.08 700.249 336.126 703.207 336.126 C 705.494 336.126 707.518 335.326 709 333.85 C 710.611 332.375 711.287 330.468 711.287 328.316 C 711.287 326.594 710.746 324.872 709.535 323.334 C 708.323 321.858 706.706 320.69 704.689 319.891 C 699.707 318.107 696.479 316.754 694.861 315.709 C 693.115 314.479 691.768 312.572 690.821 310.174 C 690.286 308.821 690.015 307.468 690.015 305.992 C 690.015 302.487 691.227 299.412 693.65 296.829 C 696.344 294 699.707 292.647 703.748 292.524 C 705.494 292.524 707.112 292.77 708.594 293.201 C 710.746 293.877 712.499 295.107 713.846 296.706 C 715.592 298.858 716.668 301.81 716.939 305.439 L 710.34 305.439 C 710.076 303.286 709.399 301.687 708.459 300.457 C 707.247 299.104 705.494 298.428 703.207 298.428 C 701.19 298.428 699.572 298.981 698.225 300.211 C 696.749 301.564 696.073 303.286 696.073 305.623 C 696.073 307.038 696.479 308.391 697.149 309.374 C 698.225 310.85 700.113 312.019 702.672 312.88 C 703.342 313.003 704.154 313.249 704.824 313.556 C 705.494 313.802 706.171 314.048 706.976 314.233 C 710.476 315.278 713.169 317 714.922 319.337 C 716.668 321.612 717.48 324.318 717.48 327.393 C 717.48 331.145 716.269 334.281 713.975 336.987 C 711.287 339.939 707.518 341.538 702.672 341.538 C 698.09 341.538 694.591 340.185 691.903 337.602 C 689.61 334.957 688.269 331.022 688.269 325.794 Z" fill="#F7F7F7" style="stroke-width: 1;"/><path d="M 769.452 308.022 L 762.582 308.022 C 758.813 301.257 753.702 297.936 747.509 297.936 C 741.852 297.936 737.276 299.904 733.912 303.84 C 730.684 307.468 729.066 311.773 729.066 316.877 C 729.066 322.289 730.813 326.717 734.183 330.468 C 737.547 334.096 741.716 336.003 746.833 336.003 C 750.332 336.003 753.432 335.203 756.125 333.604 C 758.948 331.821 761.107 329.3 762.718 325.794 L 769.452 325.794 C 767.428 330.899 764.47 334.957 760.43 337.786 C 756.525 340.431 752.22 341.784 747.374 341.784 C 743.604 341.784 739.835 340.984 736.335 339.262 C 732.295 337.356 729.202 334.65 726.779 331.145 C 724.085 327.27 722.738 322.535 722.738 317.185 C 722.738 313.372 723.544 309.62 725.432 305.869 C 727.449 301.81 730.143 298.612 733.506 296.153 C 737.412 293.447 741.852 292.094 746.968 292.094 C 751.544 292.094 755.449 293.078 758.684 294.923 C 762.718 297.505 766.352 301.81 769.452 308.022 Z" fill="#F7F7F7" style="stroke-width: 1;"/><path d="M 777.932 278.38 L 783.854 278.38 L 783.854 288.096 L 777.932 288.096 L 777.932 278.38 Z M 783.854 293.508 L 783.99 340.308 L 778.068 340.308 L 777.932 293.508 L 783.854 293.508 Z" fill="#F7F7F7" style="stroke-width: 1;"/><path d="M 839.72 318.784 L 797.445 318.907 C 798.392 324.318 800.27 328.5 803.24 331.452 C 806.2 334.281 810.24 335.757 815.22 335.757 C 818.45 335.757 821.28 335.08 823.83 333.604 C 826.93 331.821 829.35 329.115 831.24 325.364 L 838.1 325.364 C 835.68 331.022 832.45 335.08 828.55 337.786 C 824.91 340.185 820.6 341.538 815.75 341.538 C 809.16 341.538 803.37 339.262 798.522 334.65 C 793.546 329.853 790.988 323.888 790.988 316.754 C 790.988 312.757 791.794 308.944 793.546 305.439 C 795.428 301.564 798.122 298.428 801.62 296.153 C 805.53 293.631 810.24 292.278 815.62 292.278 C 822.89 292.278 828.68 294.554 832.98 299.412 C 837.57 303.963 839.72 310.543 839.72 318.784 Z M 797.716 313.802 L 833.12 313.679 C 831.91 308.391 829.89 304.516 827.06 301.933 C 824.11 299.289 820.06 297.936 815.22 297.936 C 810.1 297.936 806.06 299.412 803.1 302.364 C 800.41 305.07 798.657 308.821 797.716 313.802 Z" fill="#F7F7F7" style="stroke-width: 1;"/><path d="M 885.75 313.126 L 885.88 340.062 L 879.96 340.062 L 879.83 313.802 C 879.83 308.145 878.75 304.27 876.73 301.687 C 874.71 299.104 871.62 298.059 867.31 298.059 C 862.46 298.059 858.96 299.104 856.54 301.441 C 853.71 304.086 852.23 308.698 852.23 315.278 L 852.23 317.308 L 852.36 340.185 L 846.58 340.185 L 846.44 293.324 L 852.23 293.324 L 852.23 298.612 C 856.27 294.431 861.25 292.278 867.17 292.278 C 872.83 292.278 877.27 293.877 880.36 297.136 C 883.87 300.765 885.61 306.115 885.75 313.126 Z" fill="#F7F7F7" style="stroke-width: 1;"/><path d="M 939.6 307.468 L 932.73 307.468 C 928.96 300.765 923.85 297.382 917.66 297.382 C 912 297.382 907.43 299.412 904.06 303.286 C 900.83 306.915 899.22 311.219 899.22 316.385 C 899.22 321.735 900.96 326.163 904.33 329.976 C 907.7 333.604 911.87 335.449 916.98 335.449 C 920.48 335.449 923.58 334.65 926.28 333.051 C 929.1 331.329 931.26 328.746 932.87 325.241 L 939.6 325.241 C 937.58 330.345 934.62 334.404 930.58 337.233 C 926.68 339.939 922.37 341.292 917.53 341.292 C 913.76 341.292 909.99 340.431 906.49 338.709 C 902.45 336.802 899.35 334.096 896.93 330.653 C 894.24 326.717 892.89 321.981 892.89 316.631 C 892.89 312.88 893.69 309.067 895.58 305.316 C 897.6 301.257 900.29 298.059 903.66 295.661 C 907.56 292.955 912 291.602 917.12 291.602 C 921.69 291.602 925.6 292.524 928.84 294.431 C 933 296.952 936.64 301.257 939.6 307.468 Z" fill="#F7F7F7" style="stroke-width: 1;"/><path d="M 994.12 318.23 L 951.85 318.353 C 952.79 323.765 954.68 327.947 957.64 330.899 C 960.6 333.727 964.64 335.203 969.62 335.203 C 972.86 335.203 975.68 334.527 978.24 333.051 C 981.34 331.268 983.76 328.623 985.64 324.81 L 992.5 324.81 C 990.08 330.468 986.85 334.527 982.95 337.233 C 979.31 339.631 975.01 340.984 970.16 340.984 C 963.56 340.984 957.78 338.709 952.93 334.096 C 947.95 329.3 945.39 323.334 945.39 316.201 C 945.39 312.203 946.2 308.391 947.95 304.885 C 949.83 301.011 952.52 297.936 956.02 295.599 C 959.93 293.078 964.64 291.725 970.03 291.725 C 977.3 291.725 983.08 294 987.39 298.858 C 991.83 303.594 994.12 310.051 994.12 318.23 Z M 951.99 313.249 L 987.39 313.126 C 986.18 307.899 984.16 303.963 981.34 301.441 C 978.37 298.735 974.33 297.382 969.48 297.382 C 964.37 297.382 960.33 298.858 957.37 301.81 C 954.68 304.516 952.93 308.268 951.99 313.249 Z" fill="#F7F7F7" style="stroke-width: 1;"/><path d="M 997.89 324.872 L 1004.08 324.872 C 1004.08 327.639 1004.76 329.976 1005.97 331.821 C 1007.58 334.096 1009.87 335.203 1012.83 335.203 C 1015.12 335.203 1017.14 334.404 1018.62 332.928 C 1020.24 331.452 1020.91 329.546 1020.91 327.393 C 1020.91 325.671 1020.37 323.888 1019.16 322.412 C 1017.95 320.936 1016.33 319.706 1014.32 318.907 C 1009.34 317.185 1006.1 315.832 1004.49 314.725 C 1002.74 313.556 1001.39 311.65 1000.45 309.251 C 999.91 307.899 999.64 306.546 999.64 305.07 C 999.64 301.564 1000.86 298.428 1003.28 295.907 C 1005.97 293.078 1009.34 291.725 1013.38 291.602 C 1015.12 291.602 1016.74 291.848 1018.22 292.278 C 1020.37 292.955 1022.12 294.123 1023.47 295.784 C 1025.22 297.936 1026.3 300.888 1026.57 304.516 L 1019.97 304.516 C 1019.7 302.364 1019.03 300.765 1018.09 299.535 C 1016.88 298.182 1015.12 297.505 1012.83 297.505 C 1010.82 297.505 1009.2 298.059 1007.85 299.289 C 1006.37 300.642 1005.7 302.364 1005.7 304.639 C 1005.7 306.115 1006.1 307.468 1006.78 308.391 C 1007.85 309.928 1009.73 311.096 1012.29 311.896 C 1012.97 312.019 1013.78 312.326 1014.45 312.572 C 1015.12 312.88 1015.8 313.126 1016.6 313.249 C 1020.1 314.356 1022.8 316.078 1024.54 318.353 C 1026.3 320.69 1027.1 323.334 1027.1 326.471 C 1027.1 330.222 1025.89 333.297 1023.6 336.003 C 1020.91 338.955 1017.14 340.615 1012.29 340.615 C 1007.72 340.615 1004.22 339.262 1001.53 336.679 C 999.37 333.973 998.03 330.099 997.89 324.872 Z" fill="#F7F7F7" style="stroke-width: 1;"/><path d="M 247.461 335.818 L 278.726 291.479 L 219.879 207.904 C 215.513 201.631 215.513 194.559 219.879 188.224 L 278.726 104.71 L 247.461 60.31 C 243.095 54.04 235.444 50.47 226.712 50.47 C 217.973 50.47 210.323 54.04 205.956 60.31 L 115.844 188.224 C 111.472 194.559 111.472 201.631 115.844 207.904 L 205.956 335.818 C 210.323 342.153 217.973 345.658 226.712 345.658 C 235.444 345.658 243.095 342.153 247.461 335.818 Z" fill="url(#paint0_linear_428_10380)" style="stroke-width: 1;"/><path d="M 246.785 60.31 L 278.05 104.71 L 309.315 60.31 C 313.681 54.04 321.332 50.47 330.071 50.47 L 225.894 50.47 C 234.768 50.47 242.412 54.04 246.785 60.31 Z" fill="url(#paint1_linear_428_10380)" style="stroke-width: 1;"/><path d="M 309.457 335.818 L 278.185 291.479 L 246.92 335.818 C 242.553 342.091 234.903 345.658 226.171 345.658 L 330.341 345.658 C 321.332 345.658 313.823 342.091 309.457 335.818 Z" fill="url(#paint2_linear_428_10380)" style="stroke-width: 1;"/><path d="M 219.197 207.904 L 278.044 291.479 L 336.891 207.904 C 341.263 201.631 341.263 194.497 336.891 188.224 L 278.044 104.65 L 219.197 188.224 C 214.83 194.497 214.83 201.631 219.197 207.904 Z" fill="url(#paint3_linear_428_10380)" style="stroke-width: 1;"/><path d="M 440.243 188.224 L 350.131 60.31 C 347.948 57.17 344.947 54.71 341.392 53.05 C 337.844 51.45 333.748 50.47 329.382 50.47 C 320.508 50.47 312.993 54.04 308.626 60.31 L 277.361 104.71 L 336.208 188.224 C 340.574 194.559 340.574 201.631 336.208 207.904 L 277.361 291.479 L 308.626 335.818 C 312.993 342.153 320.643 345.658 329.382 345.658 C 338.256 345.658 345.765 342.153 350.131 335.818 L 440.243 207.904 C 444.616 201.631 444.616 194.559 440.243 188.224 Z" fill="url(#paint4_linear_428_10380)" style="stroke-width: 1;"/></svg>