<?xml version="1.0" encoding="utf-8"?>
<svg xmlns="http://www.w3.org/2000/svg" viewBox="111.08 48.487 1001.937 299.038" xmlns:bx="https://boxy-svg.com" width="1001.937px" height="299.038px"><defs><bx:export><bx:file format="svg" path="Elata-green-logotype.svg"/></bx:export><linearGradient id="paint0_linear_453_805" x1="47.9094" y1="49.9982" x2="3.17677" y2="49.9982" gradientUnits="userSpaceOnUse" gradientTransform="matrix(6.139253, 0, 0, 6.139253, 68.295281, -107.909914)"><stop stop-color="#A1A1A1"/><stop offset="1" stop-color="#607274"/></linearGradient><linearGradient id="paint1_linear_453_805" x1="27.0693" y1="30.4056" x2="67.3356" y2="30.4056" gradientUnits="userSpaceOnUse" gradientTransform="matrix(6.139253, 0, 0, 6.139253, 68.295281, -107.909914)"><stop stop-color="#607274"/><stop offset="1" stop-color="#CCCCCC"/></linearGradient><linearGradient id="paint2_linear_453_805" x1="27.0698" y1="69.5897" x2="67.3361" y2="69.5897" gradientUnits="userSpaceOnUse" gradientTransform="matrix(6.139253, 0, 0, 6.139253, 68.295281, -107.909914)"><stop stop-color="#607274"/><stop offset="1" stop-color="#A1A1A1"/></linearGradient><linearGradient id="paint3_linear_453_805" x1="23.8658" y1="49.9967" x2="44.0838" y2="49.9967" gradientUnits="userSpaceOnUse" gradientTransform="matrix(6.139253, 0, 0, 6.139253, 68.295281, -107.909914)"><stop stop-color="#171717"/><stop offset="1" stop-color="#607274"/></linearGradient><linearGradient id="paint4_linear_453_805" x1="33.8189" y1="49.9982" x2="60.8709" y2="49.9982" gradientUnits="userSpaceOnUse" gradientTransform="matrix(6.139253, 0, 0, 6.139253, 68.295281, -107.909914)"><stop offset="0.105" stop-color="#607274"/><stop offset="1" stop-color="#171717"/></linearGradient></defs><path d="M 578.366 208.077 L 623.25 207.954 C 609.007 237.115 586.427 251.788 555.522 251.911 C 544.232 251.911 533.212 249.333 522.462 243.991 C 510.503 238.036 501.091 229.994 494.105 219.803 C 486.179 207.954 482.146 194.141 482.011 178.363 C 482.011 161.173 486.314 146.561 495.179 134.59 C 502.571 124.522 512.517 116.847 525.016 111.63 C 535.361 107.15 545.847 104.88 556.326 104.88 C 568.286 104.88 579.17 107.15 588.981 111.75 C 601.21 117.4 610.751 126.241 617.608 138.089 C 625.804 152.332 629.838 170.566 629.973 192.913 L 524.341 193.158 C 526.496 200.28 529.719 205.682 533.617 209.059 C 538.989 213.602 546.651 215.874 556.596 215.874 C 563.313 215.996 570.44 213.295 578.366 208.077 Z M 523.401 164.549 L 588.447 164.427 C 585.758 156.998 581.055 151.227 574.333 147.237 C 568.286 143.615 561.704 141.834 554.583 141.834 C 547.725 141.834 541.678 143.43 536.435 146.561 C 529.719 150.429 525.415 156.507 523.401 164.549 Z" fill="#171717" style="stroke-width: 1;"/><path d="M 691.384 248.166 L 650.803 248.289 L 650.263 63.5 L 690.85 63.37 L 691.384 248.166 Z" fill="#171717" style="stroke-width: 1;"/><path d="M 861.521 108.13 L 861.92 247.184 L 821.61 247.307 L 821.61 232.02 C 809.509 243.193 795.536 248.657 779.543 248.657 C 760.862 248.657 745.004 241.843 731.97 227.968 C 718.937 214.155 712.349 197.333 712.349 177.749 C 712.349 160.375 718.396 144.536 730.491 130.17 C 744.065 114.023 760.997 105.98 781.293 105.98 C 789.084 105.98 796.34 107.45 802.793 110.4 C 809.245 113.348 815.292 117.891 820.529 123.969 L 820.529 108.37 L 861.521 108.13 Z M 753.605 177.565 C 753.605 187.94 757.098 196.105 764.226 202.429 C 770.807 208.2 778.739 211.208 788.28 211.208 C 797.28 211.208 804.942 208.507 811.259 203.104 C 818.38 197.088 822.009 188.615 822.009 177.749 C 822.009 167.128 818.786 158.656 812.333 152.578 C 805.881 146.377 797.82 143.308 788.009 143.43 C 778.739 143.43 770.942 146.254 764.625 152.025 C 757.098 158.103 753.605 166.698 753.605 177.565 Z" fill="#171717" style="stroke-width: 1;"/><path d="M 936.101 247.491 L 894.575 247.614 L 894.304 138.458 L 877.108 138.458 L 876.973 108.13 L 894.176 108.13 L 894.04 62.82 L 935.566 62.7 L 935.695 107.95 L 954.647 107.95 L 954.782 138.335 L 935.83 138.335 L 936.101 247.491 Z" fill="#171717" style="stroke-width: 1;"/><path d="M 1111.22 107.45 L 1111.62 246.509 L 1071.3 246.631 L 1071.3 231.345 C 1059.2 242.518 1045.23 247.982 1029.24 247.982 C 1010.56 247.982 994.7 241.167 981.67 227.293 C 968.632 213.479 962.045 196.658 962.045 177.012 C 962.045 159.699 968.092 143.86 980.19 129.494 C 993.76 113.348 1010.69 105.31 1030.98 105.31 C 1038.78 105.31 1046.04 106.78 1052.49 109.73 C 1058.94 112.67 1064.99 117.216 1070.22 123.294 L 1070.22 107.7 L 1111.22 107.45 Z M 1003.3 176.767 C 1003.3 187.142 1006.79 195.307 1013.92 201.631 C 1020.5 207.401 1028.43 210.348 1037.97 210.348 C 1046.97 210.348 1054.64 207.708 1060.95 202.306 C 1068.08 196.289 1071.7 187.817 1071.7 176.889 C 1071.7 166.268 1068.48 157.858 1062.03 151.78 C 1055.58 145.579 1047.52 142.51 1037.7 142.632 C 1028.43 142.632 1020.64 145.456 1014.32 151.227 C 1006.79 157.428 1003.17 166.023 1003.3 176.767 Z" fill="#171717" style="stroke-width: 1;"/><path d="M 592.64 344.798 L 578.937 344.798 L 578.802 282.853 L 591.971 282.853 C 597.748 282.853 602.315 284.326 605.68 287.273 C 609.038 290.22 610.781 294.272 610.781 299.245 C 610.781 302.314 610.247 304.893 609.038 306.919 C 608.099 308.515 606.619 310.111 604.47 311.462 C 607.423 312.69 609.842 314.409 611.457 316.987 C 613.071 319.381 614.011 322.512 614.011 326.012 C 614.011 331.599 612.531 336.08 609.572 339.273 C 606.214 342.772 600.437 344.798 592.64 344.798 Z M 584.714 288.747 L 584.714 309.743 L 588.207 309.743 C 593.849 309.743 597.883 308.945 600.437 307.594 C 603.261 305.936 604.605 302.99 604.605 298.815 C 604.605 295.316 603.396 292.921 601.106 291.325 C 598.558 289.545 594.525 288.747 588.877 288.747 L 586.593 288.747 C 586.458 288.747 586.194 288.747 585.789 288.747 C 585.383 288.624 584.984 288.747 584.714 288.747 Z M 584.849 315.207 L 584.984 338.72 C 594.39 338.72 600.572 338.106 603.261 336.878 C 606.484 335.405 608.099 332.028 608.099 326.933 C 608.099 323.311 607.153 320.732 605.275 318.829 C 603.66 317.233 600.977 316.189 597.349 315.636 C 594.525 315.514 590.356 315.207 584.849 315.207 Z" fill="#171717" style="stroke-width: 1;"/><path d="M 622.471 282.73 L 628.383 282.73 L 628.383 292.369 L 622.471 292.369 L 622.471 282.73 Z M 628.383 297.894 L 628.518 344.675 L 622.606 344.675 L 622.471 297.894 L 628.383 297.894 Z" fill="#171717" style="stroke-width: 1;"/><path d="M 635.639 321.285 C 635.639 317.54 636.444 313.918 638.187 310.234 C 640.072 306.059 642.761 302.867 646.119 300.473 C 650.017 297.648 654.585 296.298 659.963 296.298 C 665.875 296.298 671.247 298.447 676.085 302.744 C 681.328 307.594 684.01 313.488 684.01 320.609 C 684.01 327.485 681.733 333.256 677.159 338.106 C 672.321 343.202 666.274 345.719 658.883 345.719 C 653.105 345.719 647.869 343.325 643.16 338.597 C 638.187 333.747 635.639 327.976 635.639 321.285 Z M 641.95 321.039 C 641.95 327.056 643.835 331.783 647.464 335.221 C 650.822 338.475 654.99 339.948 659.828 339.948 C 664.666 339.948 668.693 338.352 672.057 335.221 C 675.821 331.783 677.564 326.933 677.564 320.855 C 677.564 315.636 675.95 311.216 672.862 307.717 C 669.503 303.972 665.2 302.069 659.693 302.069 C 655.125 302.069 651.227 303.542 647.869 306.489 C 643.97 309.988 641.95 314.838 641.95 321.039 Z" fill="#171717" style="stroke-width: 1;"/><path d="M 688.044 329.634 L 694.226 329.634 C 694.226 332.458 694.902 334.73 696.111 336.571 C 697.719 338.904 700.003 339.948 702.962 339.948 C 705.246 339.948 707.26 339.15 708.739 337.676 C 710.354 336.203 711.023 334.3 711.023 332.151 C 711.023 330.432 710.489 328.652 709.28 327.178 C 708.07 325.705 706.456 324.477 704.442 323.679 C 699.469 321.96 696.24 320.609 694.631 319.504 C 692.882 318.338 691.537 316.435 690.598 314.04 C 690.064 312.69 689.794 311.339 689.794 309.866 C 689.794 306.366 691.003 303.297 693.422 300.718 C 696.111 297.894 699.469 296.543 703.503 296.421 C 705.246 296.421 706.861 296.666 708.34 297.096 C 710.489 297.771 712.233 298.938 713.577 300.595 C 715.327 302.744 716.401 305.691 716.671 309.313 L 710.084 309.313 C 709.814 307.164 709.145 305.568 708.205 304.34 C 706.996 302.99 705.246 302.314 702.962 302.314 C 700.949 302.314 699.334 302.867 697.99 304.095 C 696.51 305.445 695.841 307.164 695.841 309.436 C 695.841 310.909 696.24 312.26 696.915 313.242 C 697.99 314.716 699.874 315.882 702.422 316.68 C 703.097 316.864 703.902 317.11 704.577 317.355 C 705.246 317.662 705.921 317.908 706.726 318.031 C 710.219 319.136 712.908 320.855 714.652 323.126 C 716.401 325.459 717.205 328.099 717.205 331.23 C 717.205 334.975 715.996 338.106 713.712 340.746 C 711.023 343.754 707.26 345.35 702.422 345.35 C 697.855 345.35 694.361 344 691.672 341.421 C 689.388 338.781 688.044 334.852 688.044 329.634 Z" fill="#171717" style="stroke-width: 1;"/><path d="M 769.088 311.892 L 762.237 311.892 C 758.473 305.138 753.366 301.762 747.183 301.762 C 741.541 301.762 736.974 303.788 733.616 307.717 C 730.386 311.339 728.778 315.636 728.778 320.732 C 728.778 326.135 730.521 330.555 733.88 334.3 C 737.244 337.922 741.406 339.825 746.514 339.825 C 750.007 339.825 753.102 339.027 755.785 337.431 C 758.609 335.65 760.757 333.133 762.372 329.634 L 769.088 329.634 C 767.075 334.73 764.115 338.72 760.088 341.544 C 756.19 344.245 751.892 345.596 747.048 345.596 C 743.291 345.596 739.528 344.798 736.035 343.079 C 732.001 341.176 728.907 338.475 726.488 334.975 C 723.805 331.107 722.461 326.38 722.461 321.039 C 722.461 317.233 723.265 313.488 725.143 309.743 C 727.163 305.691 729.852 302.437 733.21 300.043 C 737.109 297.342 741.541 295.991 746.649 295.991 C 751.217 295.991 755.115 296.973 758.338 298.815 C 762.372 301.393 766 305.691 769.088 311.892 Z" fill="#171717" style="stroke-width: 1;"/><path d="M 777.554 282.3 L 783.466 282.3 L 783.466 292 L 777.554 292 L 777.554 282.3 Z M 783.466 297.342 L 783.601 344.123 L 777.689 344.123 L 777.554 297.342 L 783.466 297.342 Z" fill="#171717" style="stroke-width: 1;"/><path d="M 839.235 322.635 L 797.04 322.758 C 797.98 328.161 799.864 332.274 802.817 335.282 C 805.776 338.106 809.81 339.58 814.777 339.58 C 818.006 339.58 820.83 338.904 823.378 337.431 C 826.472 335.65 828.891 332.949 830.769 329.204 L 837.627 329.204 C 835.208 334.852 831.979 338.904 828.086 341.544 C 824.458 344 820.155 345.35 815.317 345.35 C 808.729 345.35 802.952 343.079 798.115 338.475 C 793.142 333.625 790.588 327.731 790.588 320.609 C 790.588 316.557 791.398 312.812 793.142 309.313 C 795.027 305.445 797.709 302.314 801.209 300.043 C 805.101 297.526 809.81 296.175 815.182 296.175 C 822.438 296.175 828.215 298.447 832.519 303.297 C 837.087 307.84 839.235 314.409 839.235 322.635 Z M 797.31 317.662 L 832.654 317.54 C 831.445 312.26 829.425 308.392 826.607 305.814 C 823.648 303.112 819.62 301.762 814.777 301.762 C 809.675 301.762 805.641 303.297 802.682 306.243 C 799.999 308.945 798.25 312.69 797.31 317.662 Z" fill="#171717" style="stroke-width: 1;"/><path d="M 885.194 316.987 L 885.329 343.877 L 879.411 343.877 L 879.282 317.662 C 879.282 312.014 878.201 308.085 876.188 305.568 C 874.174 302.99 871.08 301.946 866.782 301.946 C 861.944 301.946 858.451 302.99 856.032 305.261 C 853.208 307.962 851.729 312.567 851.729 319.136 L 851.729 321.162 L 851.864 344 L 846.087 344 L 845.952 297.219 L 851.729 297.219 L 851.729 302.498 C 855.762 298.324 860.735 296.175 866.647 296.175 C 872.289 296.175 876.728 297.771 879.816 300.964 C 883.309 304.647 885.059 309.988 885.194 316.987 Z" fill="#171717" style="stroke-width: 1;"/><path d="M 938.949 311.339 L 932.098 311.339 C 928.334 304.647 923.226 301.271 917.044 301.271 C 911.402 301.271 906.835 303.297 903.47 307.164 C 900.247 310.786 898.633 315.084 898.633 320.18 C 898.633 325.582 900.382 330.002 903.741 333.809 C 907.105 337.431 911.267 339.273 916.375 339.273 C 919.868 339.273 922.963 338.475 925.645 336.878 C 928.469 335.098 930.618 332.581 932.233 329.081 L 938.949 329.081 C 936.935 334.177 933.976 338.229 929.949 341.053 C 926.051 343.754 921.747 345.044 916.909 345.044 C 913.152 345.044 909.389 344.245 905.895 342.526 C 901.862 340.623 898.768 337.922 896.349 334.423 C 893.666 330.555 892.321 325.828 892.321 320.487 C 892.321 316.68 893.126 312.935 895.004 309.19 C 897.024 305.138 899.713 301.946 903.071 299.49 C 906.97 296.85 911.402 295.5 916.51 295.5 C 921.078 295.5 924.976 296.421 928.199 298.324 C 932.368 300.841 935.996 305.138 938.949 311.339 Z" fill="#171717" style="stroke-width: 1;"/><path d="M 993.38 322.083 L 951.179 322.205 C 952.124 327.608 954.003 331.783 956.962 334.73 C 959.915 337.554 963.948 339.027 968.921 339.027 C 972.144 339.027 974.968 338.352 977.52 336.878 C 980.61 335.098 983.03 332.458 984.91 328.652 L 991.76 328.652 C 989.35 334.3 986.12 338.352 982.23 341.053 C 978.6 343.447 974.293 344.798 969.455 344.798 C 962.874 344.798 957.097 342.526 952.259 337.922 C 947.286 333.133 944.732 327.178 944.732 320.057 C 944.732 316.066 945.537 312.26 947.286 308.761 C 949.165 304.893 951.854 301.762 955.347 299.49 C 959.245 296.973 963.948 295.623 969.326 295.623 C 976.583 295.623 982.36 297.894 986.66 302.744 C 991.1 307.41 993.38 313.918 993.38 322.083 Z M 951.314 317.11 L 986.66 316.987 C 985.45 311.707 983.43 307.84 980.61 305.261 C 977.66 302.621 973.624 301.271 968.786 301.271 C 963.678 301.271 959.651 302.744 956.692 305.691 C 954.003 308.392 952.259 312.137 951.314 317.11 Z" fill="#171717" style="stroke-width: 1;"/><path d="M 997.14 328.652 L 1003.33 328.652 C 1003.33 331.476 1003.99 333.809 1005.2 335.65 C 1006.82 337.922 1009.1 339.027 1012.06 339.027 C 1014.35 339.027 1016.36 338.229 1017.84 336.756 C 1019.45 335.282 1020.12 333.379 1020.12 331.23 C 1020.12 329.45 1019.58 327.731 1018.37 326.257 C 1017.16 324.784 1015.56 323.556 1013.54 322.758 C 1008.56 321.039 1005.34 319.688 1003.72 318.583 C 1001.98 317.355 1000.64 315.514 999.7 313.058 C 999.16 311.707 998.89 310.418 998.89 308.945 C 998.89 305.445 1000.1 302.314 1002.52 299.797 C 1005.2 296.973 1008.56 295.623 1012.6 295.5 C 1014.35 295.5 1015.95 295.745 1017.43 296.175 C 1019.58 296.85 1021.33 298.017 1022.68 299.613 C 1024.42 301.762 1025.5 304.77 1025.76 308.392 L 1019.18 308.392 C 1018.91 306.243 1018.24 304.647 1017.3 303.419 C 1016.09 302.069 1014.35 301.393 1012.06 301.393 C 1010.04 301.393 1008.43 301.946 1007.09 303.112 C 1005.61 304.463 1004.93 306.243 1004.93 308.515 C 1004.93 309.988 1005.34 311.339 1006.01 312.26 C 1007.09 313.733 1008.97 314.961 1011.52 315.759 C 1012.2 315.882 1013 316.189 1013.67 316.435 C 1014.35 316.68 1015.01 316.987 1015.83 317.11 C 1019.32 318.215 1022 319.934 1023.75 322.205 C 1025.5 324.477 1026.31 327.178 1026.31 330.309 C 1026.31 334.054 1025.1 337.124 1022.81 339.825 C 1020.12 342.772 1016.36 344.368 1011.52 344.368 C 1006.95 344.368 1003.46 343.079 1000.77 340.5 C 998.62 337.799 997.28 333.931 997.14 328.652 Z" fill="#171717" style="stroke-width: 1;"/><path d="M 246.282 336.571 L 277.5 292.307 L 218.753 208.875 C 214.388 202.613 214.388 195.491 218.753 189.229 L 277.5 105.8 L 246.282 61.53 C 241.923 55.27 234.292 51.71 225.568 51.71 C 216.844 51.71 209.207 55.27 204.848 61.53 L 114.889 189.229 C 110.524 195.491 110.524 202.613 114.889 208.875 L 204.848 336.571 C 209.207 342.833 216.844 346.394 225.568 346.394 C 234.292 346.394 241.923 342.833 246.282 336.571 Z" fill="url(#paint0_linear_453_805)" style="stroke-width: 1;"/><path d="M 245.606 61.53 L 276.818 105.8 L 308.03 61.53 C 312.389 55.27 320.026 51.71 328.75 51.71 L 224.751 51.71 C 233.61 51.71 241.241 55.27 245.606 61.53 Z" fill="url(#paint1_linear_453_805)" style="stroke-width: 1;"/><path d="M 308.172 336.571 L 276.96 292.246 L 245.741 336.571 C 241.383 342.833 233.752 346.394 225.028 346.394 L 329.027 346.394 C 320.026 346.394 312.53 342.833 308.172 336.571 Z" fill="url(#paint2_linear_453_805)" style="stroke-width: 1;"/><path d="M 218.072 208.875 L 276.812 292.246 L 335.559 208.875 C 339.924 202.613 339.924 195.491 335.559 189.229 L 276.812 105.8 L 218.072 189.229 C 213.707 195.491 213.707 202.613 218.072 208.875 Z" fill="url(#paint3_linear_453_805)" style="stroke-width: 1;"/><path d="M 438.741 189.229 L 348.777 61.53 C 346.597 58.4 343.601 55.95 340.059 54.29 C 336.51 52.69 332.422 51.71 328.063 51.71 C 319.204 51.71 311.708 55.27 307.343 61.53 L 276.131 105.8 L 334.877 189.229 C 339.236 195.491 339.236 202.613 334.877 208.875 L 276.131 292.307 L 307.343 336.571 C 311.708 342.833 319.339 346.394 328.063 346.394 C 336.922 346.394 344.418 342.833 348.777 336.571 L 438.741 208.875 C 443.1 202.613 443.1 195.491 438.741 189.229 Z" fill="url(#paint4_linear_453_805)" style="stroke-width: 1;"/></svg>