<?xml version="1.0" encoding="utf-8"?>
<svg xmlns="http://www.w3.org/2000/svg" viewBox="232.313 -146.496 1002.381 894.667" xmlns:bx="https://boxy-svg.com" width="1002.381px" height="894.667px"><defs><bx:export><bx:file format="svg" path="Elata-white-logo.svg"/></bx:export><linearGradient id="paint0_linear_453_995" x1="34.044" y1="19.9985" x2="-3.23323" y2="19.9985" gradientUnits="userSpaceOnUse" gradientTransform="matrix(22.298529, 0, 0, 22.298529, 234.042077, -145.563141)"><stop stop-color="#F8F8F8"/><stop offset="1" stop-color="#707070"/></linearGradient><linearGradient id="paint1_linear_453_995" x1="16.6762" y1="3.67136" x2="50.2315" y2="3.67136" gradientUnits="userSpaceOnUse" gradientTransform="matrix(22.298529, 0, 0, 22.298529, 234.042077, -145.563141)"><stop stop-color="#EAEAEA"/><stop offset="1" stop-color="#A4A4A4"/></linearGradient><linearGradient id="paint2_linear_453_995" x1="16.6763" y1="36.3248" x2="50.2316" y2="36.3248" gradientUnits="userSpaceOnUse" gradientTransform="matrix(22.298529, 0, 0, 22.298529, 234.042077, -145.563141)"><stop stop-color="#EAEAEA"/><stop offset="1" stop-color="#A4A4A4"/></linearGradient><linearGradient id="paint3_linear_453_995" x1="14.008" y1="19.9973" x2="30.8563" y2="19.9973" gradientUnits="userSpaceOnUse" gradientTransform="matrix(22.298529, 0, 0, 22.298529, 234.042077, -145.563141)"><stop stop-color="#F6F6F6"/><stop offset="1" stop-color="#B7B7B7"/></linearGradient><linearGradient id="paint4_linear_453_995" x1="22.3012" y1="19.9985" x2="44.8446" y2="19.9985" gradientUnits="userSpaceOnUse" gradientTransform="matrix(22.298529, 0, 0, 22.298529, 234.042077, -145.563141)"><stop offset="0.105" stop-color="#E8E8E8"/><stop offset="1" stop-color="#5D5D5D"/></linearGradient></defs><path d="M 641.637 716.764 L 736.116 582.527 L 558.307 330.108 C 545.107 311.154 545.107 289.747 558.307 270.794 L 736.116 18.151 L 641.637 -115.86 C 628.436 -134.82 605.335 -145.52 578.934 -145.52 C 552.532 -145.52 529.431 -134.82 516.23 -115.86 L 243.943 270.794 C 230.742 289.747 230.742 311.154 243.943 330.108 L 516.23 716.764 C 529.431 735.718 552.532 746.421 578.934 746.421 C 605.335 746.421 628.436 735.718 641.637 716.764 Z" fill="url(#paint0_linear_453_995)" style="stroke-width: 1;"/><path d="M 639.563 -115.86 L 734.042 18.151 L 828.521 -115.86 C 841.722 -134.82 864.823 -145.52 891.224 -145.52 L 576.436 -145.52 C 603.261 -145.52 626.362 -134.82 639.563 -115.86 Z" fill="url(#paint1_linear_453_995)" style="stroke-width: 1;"/><path d="M 828.922 716.541 L 734.466 582.527 L 639.987 716.541 C 626.786 735.718 603.685 746.421 577.283 746.421 L 892.049 746.421 C 864.823 746.421 842.123 735.718 828.922 716.541 Z" fill="url(#paint2_linear_453_995)" style="stroke-width: 1;"/><path d="M 556.256 330.108 L 734.064 582.527 L 911.873 330.108 C 925.074 311.154 925.074 289.747 911.873 270.571 L 734.064 18.151 L 556.256 270.571 C 543.055 289.747 543.055 311.154 556.256 330.108 Z" fill="url(#paint3_linear_453_995)" style="stroke-width: 1;"/><path d="M 1224.14 270.794 L 951.854 -115.86 C 945.254 -125.45 936.178 -132.81 925.453 -137.72 C 914.727 -142.62 902.351 -145.52 889.151 -145.52 C 862.326 -145.52 839.648 -134.82 826.447 -115.86 L 731.968 18.151 L 909.777 270.794 C 922.978 289.747 922.978 311.154 909.777 330.108 L 731.968 582.527 L 826.447 716.764 C 839.648 735.718 862.749 746.421 889.151 746.421 C 915.976 746.421 938.653 735.718 951.854 716.764 L 1224.14 330.108 C 1237.34 311.154 1237.34 289.747 1224.14 270.794 Z" fill="url(#paint4_linear_453_995)" style="stroke-width: 1;"/></svg>