<?xml version="1.0" encoding="utf-8"?>
<svg xmlns="http://www.w3.org/2000/svg" viewBox="232.313 -146.496 1002.381 894.667" xmlns:bx="https://boxy-svg.com" width="1002.381px" height="894.667px"><defs><bx:export><bx:file format="svg" path="Elata-black-logo.svg"/></bx:export><linearGradient id="paint0_linear_453_989" x1="34.044" y1="19.9985" x2="-3.23323" y2="19.9985" gradientUnits="userSpaceOnUse" gradientTransform="matrix(22.298529, 0, 0, 22.298529, 233.83707, -145.688235)"><stop stop-color="#040404"/><stop offset="1" stop-color="#6D6D6D"/></linearGradient><linearGradient id="paint1_linear_453_989" x1="16.6762" y1="3.67136" x2="50.2315" y2="3.67136" gradientUnits="userSpaceOnUse" gradientTransform="matrix(22.298529, 0, 0, 22.298529, 233.83707, -145.688235)"><stop stop-color="#1F1F1F"/><stop offset="1" stop-color="#AEAEAE"/></linearGradient><linearGradient id="paint2_linear_453_989" x1="16.6783" y1="36.3248" x2="50.2335" y2="36.3248" gradientUnits="userSpaceOnUse" gradientTransform="matrix(22.298529, 0, 0, 22.298529, 233.83707, -145.688235)"><stop stop-color="#1F1F1F"/><stop offset="1" stop-color="#AEAEAE"/></linearGradient><linearGradient id="paint3_linear_453_989" x1="14.008" y1="19.9973" x2="30.8563" y2="19.9973" gradientUnits="userSpaceOnUse" gradientTransform="matrix(22.298529, 0, 0, 22.298529, 233.83707, -145.688235)"><stop/><stop offset="1" stop-color="#ADADAD"/></linearGradient><linearGradient id="paint4_linear_453_989" x1="22.3012" y1="19.9985" x2="44.8446" y2="19.9985" gradientUnits="userSpaceOnUse" gradientTransform="matrix(22.298529, 0, 0, 22.298529, 233.83707, -145.688235)"><stop offset="0.105" stop-color="#181818"/><stop offset="1" stop-color="#8A8A8A"/></linearGradient></defs><path d="M 641.43 716.542 L 735.91 582.461 L 558.103 329.998 C 544.903 310.999 544.903 289.548 558.103 270.572 L 735.91 18.086 L 641.43 -115.97 C 628.23 -134.97 605.13 -145.7 578.729 -145.7 C 552.328 -145.7 529.227 -134.97 516.026 -115.97 L 243.739 270.572 C 230.538 289.548 230.538 310.999 243.739 329.998 L 516.026 716.542 C 529.227 735.522 552.328 746.242 578.729 746.242 C 605.13 746.242 628.23 735.522 641.43 716.542 Z" fill="url(#paint0_linear_453_989)" style="stroke-width: 1;"/><path d="M 639.36 -115.97 L 733.84 18.086 L 828.32 -115.97 C 841.52 -134.97 864.62 -145.7 891.02 -145.7 L 576.232 -145.7 C 603.06 -145.7 626.16 -134.97 639.36 -115.97 Z" fill="url(#paint1_linear_453_989)" style="stroke-width: 1;"/><path d="M 828.76 716.522 L 734.31 582.439 L 639.83 716.522 C 626.63 735.492 603.52 746.242 577.102 746.242 L 891.89 746.242 C 864.66 746.242 841.96 735.492 828.76 716.522 Z" fill="url(#paint2_linear_453_989)" style="stroke-width: 1;"/><path d="M 556.052 329.953 L 733.86 582.439 L 911.67 329.953 C 924.87 310.977 924.87 289.526 911.67 270.55 L 733.86 18.063 L 556.052 270.55 C 542.851 289.526 542.851 310.977 556.052 329.953 Z" fill="url(#paint3_linear_453_989)" style="stroke-width: 1;"/><path d="M 1223.94 270.572 L 951.65 -115.97 C 945.05 -125.47 935.97 -132.9 925.25 -137.85 C 914.52 -142.8 902.15 -145.7 888.95 -145.7 C 862.12 -145.7 839.44 -134.97 826.24 -115.97 L 731.76 18.086 L 909.57 270.572 C 922.77 289.548 922.77 310.999 909.57 329.998 L 731.76 582.461 L 826.24 716.542 C 839.44 735.522 862.55 746.242 888.95 746.242 C 915.77 746.242 938.45 735.522 951.65 716.542 L 1223.94 329.998 C 1237.14 310.999 1237.14 289.548 1223.94 270.572 Z" fill="url(#paint4_linear_453_989)" style="stroke-width: 1;"/></svg>