<?xml version="1.0" encoding="utf-8"?>
<svg xmlns="http://www.w3.org/2000/svg" viewBox="111.08 40.868 1004.053 306.657" xmlns:bx="https://boxy-svg.com" width="1004.053px" height="306.657px"><defs><linearGradient id="paint0_linear_453_626" x1="48.2473" y1="49.9982" x2="3.51466" y2="49.9982" gradientUnits="userSpaceOnUse" gradientTransform="matrix(6.164771, 0, 0, 6.164771, 67.723883, -116.299043)"><stop stop-color="#040404"/><stop offset="1" stop-color="#6D6D6D"/></linearGradient><linearGradient id="paint1_linear_453_626" x1="27.4072" y1="30.4056" x2="67.6735" y2="30.4056" gradientUnits="userSpaceOnUse" gradientTransform="matrix(6.164771, 0, 0, 6.164771, 67.723883, -116.299043)"><stop stop-color="#1F1F1F"/><stop offset="1" stop-color="#AEAEAE"/></linearGradient><linearGradient id="paint2_linear_453_626" x1="27.4077" y1="69.5897" x2="67.674" y2="69.5897" gradientUnits="userSpaceOnUse" gradientTransform="matrix(6.164771, 0, 0, 6.164771, 67.723883, -116.299043)"><stop stop-color="#1F1F1F"/><stop offset="1" stop-color="#AEAEAE"/></linearGradient><linearGradient id="paint3_linear_453_626" x1="24.2037" y1="49.9967" x2="44.4217" y2="49.9967" gradientUnits="userSpaceOnUse" gradientTransform="matrix(6.164771, 0, 0, 6.164771, 67.723883, -116.299043)"><stop/><stop offset="1" stop-color="#ADADAD"/></linearGradient><linearGradient id="paint4_linear_453_626" x1="34.1548" y1="49.9982" x2="61.2069" y2="49.9982" gradientUnits="userSpaceOnUse" gradientTransform="matrix(6.164771, 0, 0, 6.164771, 67.723883, -116.299043)"><stop offset="0.105" stop-color="#181818"/><stop offset="1" stop-color="#8A8A8A"/></linearGradient><bx:export><bx:file format="svg" path="Elata-black-logotype.svg"/></bx:export></defs><path d="M 577.845 201.007 L 622.915 200.873 C 608.609 230.155 585.941 244.865 554.903 244.999 C 543.571 244.999 532.505 242.439 521.703 237.045 C 509.693 231.107 500.251 223.003 493.235 212.753 C 485.271 200.873 481.227 186.979 481.091 171.193 C 481.091 153.917 485.407 139.209 494.313 127.201 C 501.735 117.077 511.723 109.385 524.267 104.119 C 534.661 99.667 545.185 97.373 555.715 97.373 C 567.723 97.373 578.653 99.667 588.505 104.253 C 600.785 109.925 610.367 118.827 617.247 130.709 C 625.481 145.007 629.527 163.361 629.661 185.767 L 523.595 186.029 C 525.755 193.189 528.997 198.581 532.907 201.955 C 538.305 206.545 546.001 208.839 555.981 208.839 C 562.731 208.975 569.883 206.275 577.845 201.007 Z M 522.653 157.291 L 587.965 157.155 C 585.267 149.733 580.543 143.929 573.797 139.881 C 567.723 136.237 561.109 134.487 553.957 134.487 C 547.079 134.487 541.005 136.103 535.743 139.209 C 528.997 143.123 524.673 149.197 522.653 157.291 Z" fill="#171717" style="stroke-width: 1;"/><path d="M 691.333 241.229 L 650.579 241.365 L 650.043 55.811 L 690.797 55.675 L 691.333 241.229 Z" fill="#171717" style="stroke-width: 1;"/><path d="M 862.179 100.611 L 862.581 240.279 L 822.101 240.413 L 822.101 225.033 C 809.957 236.233 795.921 241.767 779.859 241.767 C 761.101 241.767 745.179 234.885 732.089 220.983 C 719.001 207.081 712.387 190.217 712.387 170.511 C 712.387 153.111 718.457 137.185 730.605 122.741 C 744.235 106.553 761.235 98.455 781.617 98.455 C 789.441 98.455 796.727 99.939 803.207 102.909 C 809.687 105.877 815.757 110.463 821.015 116.533 L 821.015 100.881 L 862.179 100.611 Z M 753.813 170.377 C 753.813 180.771 757.325 188.999 764.477 195.345 C 771.089 201.147 779.051 204.119 788.633 204.119 C 797.675 204.119 805.363 201.417 811.707 196.017 C 818.859 189.943 822.503 181.443 822.503 170.511 C 822.503 159.853 819.265 151.353 812.785 145.283 C 806.305 139.073 798.211 135.971 788.363 136.103 C 779.051 136.103 771.223 138.939 764.879 144.737 C 757.325 150.811 753.813 159.447 753.813 170.377 Z" fill="#171717" style="stroke-width: 1;"/><path d="M 937.069 240.549 L 895.371 240.685 L 895.097 131.115 L 877.831 131.115 L 877.695 100.619 L 894.969 100.619 L 894.835 55.139 L 936.531 55.003 L 936.667 100.479 L 955.691 100.479 L 955.827 130.979 L 936.797 130.979 L 937.069 240.549 Z" fill="#171717" style="stroke-width: 1;"/><path d="M 1112.91 99.939 L 1113.31 239.607 L 1072.83 239.741 L 1072.83 224.357 C 1060.68 235.557 1046.65 241.095 1030.59 241.095 C 1011.84 241.095 995.909 234.209 982.823 220.311 C 969.737 206.409 963.121 189.545 963.121 169.839 C 963.121 152.429 969.191 136.507 981.339 122.069 C 994.965 105.877 1011.97 97.783 1032.35 97.783 C 1040.17 97.783 1047.46 99.265 1053.94 102.233 C 1060.42 105.205 1066.49 109.791 1071.75 115.861 L 1071.75 100.209 L 1112.91 99.939 Z M 1004.55 169.569 C 1004.55 179.963 1008.06 188.193 1015.21 194.537 C 1021.82 200.339 1029.79 203.311 1039.37 203.311 C 1048.4 203.311 1056.1 200.611 1062.44 195.209 C 1069.59 189.135 1073.24 180.635 1073.24 169.705 C 1073.24 159.045 1070 150.545 1063.52 144.471 C 1057.04 138.265 1048.94 135.159 1039.09 135.295 C 1029.79 135.295 1021.96 138.131 1015.61 143.929 C 1008.06 150.139 1004.41 158.775 1004.55 169.569 Z" fill="#171717" style="stroke-width: 1;"/><path d="M 592.177 338.287 L 578.415 338.287 L 578.277 276.077 L 591.501 276.077 C 597.309 276.077 601.895 277.557 605.269 280.529 C 608.641 283.501 610.395 287.545 610.395 292.537 C 610.395 295.643 609.855 298.209 608.641 300.233 C 607.699 301.853 606.211 303.467 604.055 304.819 C 607.027 306.033 609.453 307.791 611.075 310.353 C 612.691 312.783 613.633 315.885 613.633 319.393 C 613.633 325.061 612.153 329.517 609.181 332.751 C 605.809 336.259 600.009 338.287 592.177 338.287 Z M 584.215 282.017 L 584.215 303.065 L 587.727 303.065 C 593.395 303.065 597.445 302.255 600.009 300.905 C 602.837 299.287 604.191 296.315 604.191 292.139 C 604.191 288.623 602.973 286.193 600.681 284.577 C 598.117 282.823 594.067 282.017 588.399 282.017 L 586.109 282.017 C 585.973 282.017 585.703 282.017 585.301 282.017 C 584.895 281.881 584.485 282.017 584.215 282.017 Z M 584.349 308.599 L 584.485 332.213 C 593.935 332.213 600.137 331.537 602.837 330.323 C 606.079 328.845 607.699 325.463 607.699 320.341 C 607.699 316.693 606.751 314.135 604.867 312.241 C 603.247 310.619 600.547 309.541 596.903 309.005 C 594.067 308.869 589.887 308.599 584.349 308.599 Z" fill="#171717" style="stroke-width: 1;"/><path d="M 622.133 275.943 L 628.071 275.943 L 628.071 285.659 L 622.133 285.659 L 622.133 275.943 Z M 628.071 291.193 L 628.207 338.151 L 622.263 338.151 L 622.133 291.193 L 628.071 291.193 Z" fill="#171717" style="stroke-width: 1;"/><path d="M 635.351 314.669 C 635.351 310.889 636.157 307.247 637.915 303.603 C 639.801 299.427 642.501 296.181 645.883 293.755 C 649.789 290.923 654.383 289.573 659.777 289.573 C 665.715 289.573 671.113 291.729 675.973 296.045 C 681.235 300.905 683.929 306.849 683.929 313.997 C 683.929 320.877 681.637 326.681 677.051 331.537 C 672.191 336.665 666.121 339.229 658.699 339.229 C 652.895 339.229 647.633 336.799 642.911 332.079 C 637.915 327.221 635.351 321.419 635.351 314.669 Z M 641.695 314.397 C 641.695 320.471 643.579 325.201 647.223 328.705 C 650.605 331.943 654.785 333.431 659.641 333.431 C 664.497 333.431 668.547 331.807 671.919 328.705 C 675.699 325.201 677.457 320.341 677.457 314.263 C 677.457 309.005 675.833 304.545 672.735 301.041 C 669.359 297.263 665.043 295.373 659.505 295.373 C 654.919 295.373 651.005 296.861 647.633 299.823 C 643.719 303.333 641.695 308.189 641.695 314.397 Z" fill="#171717" style="stroke-width: 1;"/><path d="M 687.981 323.041 L 694.187 323.041 C 694.187 325.873 694.867 328.165 696.079 330.057 C 697.695 332.349 699.989 333.431 702.961 333.431 C 705.251 333.431 707.281 332.623 708.761 331.135 C 710.383 329.651 711.055 327.763 711.055 325.607 C 711.055 323.849 710.519 322.091 709.305 320.611 C 708.087 319.127 706.469 317.915 704.445 317.107 C 699.453 315.349 696.215 313.997 694.597 312.919 C 692.837 311.705 691.489 309.811 690.543 307.381 C 690.011 306.041 689.735 304.689 689.735 303.205 C 689.735 299.697 690.953 296.591 693.379 294.025 C 696.079 291.193 699.453 289.845 703.501 289.709 C 705.251 289.709 706.875 289.979 708.363 290.381 C 710.519 291.057 712.269 292.275 713.621 293.889 C 715.375 296.053 716.457 299.017 716.727 302.659 L 710.113 302.659 C 709.843 300.505 709.169 298.881 708.227 297.669 C 707.011 296.315 705.251 295.643 702.961 295.643 C 700.941 295.643 699.317 296.189 697.969 297.401 C 696.481 298.755 695.809 300.505 695.809 302.795 C 695.809 304.283 696.215 305.631 696.887 306.573 C 697.969 308.061 699.859 309.275 702.419 310.083 C 703.097 310.217 703.903 310.491 704.583 310.763 C 705.251 311.025 705.933 311.299 706.739 311.435 C 710.247 312.513 712.949 314.271 714.699 316.561 C 716.457 318.857 717.265 321.557 717.265 324.655 C 717.265 328.435 716.047 331.541 713.757 334.237 C 711.055 337.209 707.281 338.829 702.419 338.829 C 697.829 338.829 694.325 337.479 691.625 334.915 C 689.329 332.213 687.981 328.299 687.981 323.041 Z" fill="#171717" style="stroke-width: 1;"/><path d="M 769.363 305.225 L 762.481 305.225 C 758.703 298.479 753.571 295.103 747.367 295.103 C 741.699 295.103 737.113 297.131 733.739 301.041 C 730.497 304.685 728.883 309.005 728.883 314.135 C 728.883 319.529 730.633 323.983 734.007 327.763 C 737.383 331.405 741.563 333.295 746.695 333.295 C 750.203 333.295 753.309 332.487 756.003 330.865 C 758.839 329.115 760.993 326.549 762.617 323.037 L 769.363 323.037 C 767.339 328.165 764.375 332.213 760.325 335.049 C 756.407 337.747 752.093 339.095 747.235 339.095 C 743.457 339.095 739.679 338.287 736.171 336.529 C 732.121 334.643 729.015 331.943 726.583 328.435 C 723.891 324.521 722.539 319.799 722.539 314.405 C 722.539 310.627 723.347 306.849 725.239 303.065 C 727.261 299.017 729.961 295.783 733.333 293.353 C 737.247 290.651 741.699 289.303 746.829 289.303 C 751.415 289.303 755.329 290.245 758.567 292.139 C 762.617 294.701 766.261 299.017 769.363 305.225 Z" fill="#171717" style="stroke-width: 1;"/><path d="M 777.863 275.537 L 783.805 275.537 L 783.805 285.259 L 777.863 285.259 L 777.863 275.537 Z M 783.805 290.651 L 783.937 337.615 L 777.999 337.615 L 777.863 290.651 L 783.805 290.651 Z" fill="#171717" style="stroke-width: 1;"/><path d="M 839.801 316.025 L 797.429 316.155 C 798.371 321.557 800.265 325.741 803.231 328.705 C 806.203 331.541 810.253 333.029 815.245 333.029 C 818.481 333.029 821.317 332.349 823.875 330.865 C 826.981 329.115 829.413 326.415 831.297 322.635 L 838.187 322.635 C 835.757 328.307 832.515 332.349 828.605 335.049 C 824.961 337.479 820.641 338.829 815.781 338.829 C 809.175 338.829 803.367 336.537 798.511 331.951 C 793.515 327.091 790.949 321.147 790.949 313.997 C 790.949 309.955 791.765 306.177 793.515 302.659 C 795.407 298.755 798.109 295.643 801.617 293.353 C 805.523 290.787 810.253 289.439 815.645 289.439 C 822.933 289.439 828.741 291.729 833.055 296.591 C 837.641 301.181 839.801 307.791 839.801 316.025 Z M 797.699 311.033 L 833.191 310.897 C 831.977 305.631 829.953 301.717 827.121 299.151 C 824.145 296.459 820.105 295.111 815.245 295.111 C 810.117 295.111 806.067 296.591 803.097 299.561 C 800.399 302.259 798.645 306.041 797.699 311.033 Z" fill="#171717" style="stroke-width: 1;"/><path d="M 885.949 310.353 L 886.085 337.345 L 880.151 337.345 L 880.015 311.033 C 880.015 305.361 878.933 301.447 876.905 298.889 C 874.883 296.323 871.777 295.245 867.461 295.245 C 862.605 295.245 859.097 296.323 856.667 298.615 C 853.831 301.315 852.347 305.901 852.347 312.513 L 852.347 314.541 L 852.481 337.479 L 846.679 337.479 L 846.543 290.517 L 852.347 290.517 L 852.347 295.783 C 856.395 291.603 861.387 289.439 867.327 289.439 C 872.991 289.439 877.449 291.057 880.547 294.295 C 884.055 297.939 885.813 303.341 885.949 310.353 Z" fill="#171717" style="stroke-width: 1;"/><path d="M 939.929 304.689 L 933.047 304.689 C 929.269 297.939 924.141 294.565 917.933 294.565 C 912.269 294.565 907.679 296.591 904.309 300.505 C 901.065 304.147 899.449 308.467 899.449 313.599 C 899.449 318.991 901.199 323.443 904.573 327.221 C 907.953 330.865 912.129 332.759 917.261 332.759 C 920.769 332.759 923.875 331.951 926.569 330.329 C 929.405 328.569 931.565 326.009 933.183 322.501 L 939.929 322.501 C 937.905 327.627 934.941 331.677 930.891 334.509 C 926.979 337.209 922.663 338.557 917.801 338.557 C 914.023 338.557 910.245 337.751 906.737 335.993 C 902.687 334.107 899.581 331.405 897.151 327.897 C 894.457 323.983 893.105 319.263 893.105 313.861 C 893.105 310.083 893.917 306.303 895.805 302.533 C 897.831 298.479 900.531 295.245 903.901 292.815 C 907.815 290.115 912.269 288.767 917.397 288.767 C 921.983 288.767 925.897 289.709 929.133 291.603 C 933.319 294.159 936.961 298.479 939.929 304.689 Z" fill="#171717" style="stroke-width: 1;"/><path d="M 994.585 315.475 L 952.215 315.615 C 953.159 321.013 955.043 325.201 958.015 328.165 C 960.983 331.001 965.031 332.487 970.023 332.487 C 973.261 332.487 976.097 331.807 978.663 330.323 C 981.761 328.569 984.191 325.873 986.085 322.091 L 992.961 322.091 C 990.535 327.759 987.297 331.807 983.383 334.509 C 979.741 336.939 975.425 338.287 970.569 338.287 C 963.953 338.287 958.151 335.993 953.293 331.401 C 948.301 326.541 945.737 320.607 945.737 313.455 C 945.737 309.405 946.543 305.631 948.301 302.119 C 950.187 298.209 952.887 295.103 956.397 292.811 C 960.311 290.245 965.031 288.893 970.433 288.893 C 977.719 288.893 983.519 291.189 987.835 296.045 C 992.293 300.775 994.585 307.247 994.585 315.475 Z M 952.343 310.491 L 987.835 310.353 C 986.621 305.091 984.597 301.177 981.761 298.611 C 978.797 295.909 974.749 294.565 969.887 294.565 C 964.761 294.565 960.715 296.045 957.745 299.017 C 955.043 301.717 953.293 305.497 952.343 310.491 Z" fill="#171717" style="stroke-width: 1;"/><path d="M 998.363 322.099 L 1004.57 322.099 C 1004.57 324.927 1005.25 327.221 1006.46 329.115 C 1008.08 331.405 1010.37 332.487 1013.34 332.487 C 1015.64 332.487 1017.66 331.677 1019.15 330.193 C 1020.76 328.705 1021.44 326.819 1021.44 324.655 C 1021.44 322.905 1020.9 321.147 1019.69 319.669 C 1018.47 318.185 1016.85 316.967 1014.82 316.155 C 1009.84 314.405 1006.59 313.053 1004.98 311.975 C 1003.22 310.763 1001.87 308.869 1000.93 306.439 C 1000.39 305.091 1000.12 303.747 1000.12 302.259 C 1000.12 298.755 1001.34 295.643 1003.76 293.083 C 1006.46 290.251 1009.84 288.901 1013.88 288.767 C 1015.64 288.767 1017.25 289.037 1018.74 289.439 C 1020.9 290.115 1022.65 291.327 1024 292.947 C 1025.76 295.111 1026.84 298.073 1027.11 301.717 L 1020.5 301.717 C 1020.23 299.561 1019.55 297.939 1018.6 296.725 C 1017.39 295.373 1015.64 294.701 1013.34 294.701 C 1011.32 294.701 1009.7 295.245 1008.35 296.459 C 1006.86 297.803 1006.2 299.561 1006.2 301.853 C 1006.2 303.341 1006.59 304.689 1007.27 305.631 C 1008.35 307.119 1010.24 308.333 1012.8 309.139 C 1013.48 309.275 1014.29 309.545 1014.96 309.819 C 1015.64 310.083 1016.31 310.353 1017.12 310.491 C 1020.63 311.569 1023.33 313.323 1025.08 315.619 C 1026.84 317.915 1027.65 320.611 1027.65 323.713 C 1027.65 327.491 1026.43 330.599 1024.14 333.295 C 1021.44 336.267 1017.66 337.885 1012.8 337.885 C 1008.22 337.885 1004.71 336.537 1002.01 333.971 C 999.851 331.271 998.499 327.357 998.363 322.099 Z" fill="#171717" style="stroke-width: 1;"/><path d="M 248.537 330.037 L 279.877 285.561 L 220.889 201.795 C 216.513 195.499 216.513 188.377 220.889 182.085 L 279.877 98.323 L 248.537 53.839 C 244.153 47.545 236.493 43.987 227.729 43.987 C 218.971 43.987 211.307 47.545 206.927 53.839 L 116.591 182.085 C 112.217 188.377 112.217 195.499 116.591 201.795 L 206.927 330.037 C 211.307 336.333 218.971 339.897 227.729 339.897 C 236.493 339.897 244.153 336.333 248.537 330.037 Z" fill="url(#paint0_linear_453_626)" style="stroke-width: 1;"/><path d="M 247.853 53.839 L 279.193 98.323 L 310.537 53.839 C 314.919 47.545 322.583 43.987 331.341 43.987 L 226.911 43.987 C 235.807 43.987 243.475 47.545 247.853 53.839 Z" fill="url(#paint1_linear_453_626)" style="stroke-width: 1;"/><path d="M 310.677 330.033 L 279.337 285.549 L 247.993 330.033 C 243.611 336.329 235.947 339.889 227.189 339.889 L 331.619 339.889 C 322.587 339.889 315.063 336.329 310.677 330.033 Z" fill="url(#paint2_linear_453_626)" style="stroke-width: 1;"/><path d="M 220.205 201.787 L 279.193 285.549 L 338.185 201.787 C 342.563 195.487 342.563 188.373 338.185 182.077 L 279.193 98.311 L 220.205 182.077 C 215.829 188.373 215.829 195.487 220.205 201.787 Z" fill="url(#paint3_linear_453_626)" style="stroke-width: 1;"/><path d="M 441.779 182.085 L 351.443 53.839 C 349.255 50.697 346.243 48.229 342.685 46.581 C 339.127 44.941 335.021 43.987 330.641 43.987 C 321.743 43.987 314.217 47.545 309.841 53.839 L 278.493 98.323 L 337.481 182.085 C 341.865 188.377 341.865 195.499 337.481 201.795 L 278.493 285.561 L 309.841 330.037 C 314.217 336.333 321.877 339.897 330.641 339.897 C 339.533 339.897 347.063 336.333 351.443 330.037 L 441.779 201.795 C 446.153 195.499 446.153 188.377 441.779 182.085 Z" fill="url(#paint4_linear_453_626)" style="stroke-width: 1;"/></svg>