<?xml version="1.0" encoding="utf-8"?>
<svg xmlns="http://www.w3.org/2000/svg" viewBox="232.313 -146.496 1002.381 894.667" xmlns:bx="https://boxy-svg.com" width="1002.381px" height="894.667px"><defs><bx:export><bx:file format="svg" path="Elata-green-logo.svg"/></bx:export><linearGradient id="paint0_linear_453_983" x1="34.044" y1="19.9985" x2="-3.23323" y2="19.9985" gradientUnits="userSpaceOnUse" gradientTransform="matrix(22.298529, 0, 0, 22.298529, 233.509006, -144.938357)"><stop stop-color="#A1A1A1"/><stop offset="1" stop-color="#607274"/></linearGradient><linearGradient id="paint1_linear_453_983" x1="16.6762" y1="3.67136" x2="50.2315" y2="3.67136" gradientUnits="userSpaceOnUse" gradientTransform="matrix(22.298529, 0, 0, 22.298529, 233.509006, -144.938357)"><stop stop-color="#607274"/><stop offset="1" stop-color="#CCCCCC"/></linearGradient><linearGradient id="paint2_linear_453_983" x1="16.6763" y1="36.3248" x2="50.2316" y2="36.3248" gradientUnits="userSpaceOnUse" gradientTransform="matrix(22.298529, 0, 0, 22.298529, 233.509006, -144.938357)"><stop stop-color="#607274"/><stop offset="1" stop-color="#A1A1A1"/></linearGradient><linearGradient id="paint3_linear_453_983" x1="14.008" y1="19.9973" x2="30.8563" y2="19.9973" gradientUnits="userSpaceOnUse" gradientTransform="matrix(22.298529, 0, 0, 22.298529, 233.509006, -144.938357)"><stop stop-color="#171717"/><stop offset="1" stop-color="#607274"/></linearGradient><linearGradient id="paint4_linear_453_983" x1="22.3012" y1="19.9985" x2="44.8446" y2="19.9985" gradientUnits="userSpaceOnUse" gradientTransform="matrix(22.298529, 0, 0, 22.298529, 233.509006, -144.938357)"><stop offset="0.105" stop-color="#607274"/><stop offset="1" stop-color="#171717"/></linearGradient></defs><path d="M 641.115 717.306 L 735.595 583.226 L 557.785 330.734 C 544.584 311.758 544.584 290.307 557.785 271.331 L 735.595 18.845 L 641.115 -115.24 C 627.915 -134.21 604.815 -144.94 578.415 -144.94 C 552.01 -144.94 528.908 -134.21 515.708 -115.24 L 243.42 271.331 C 230.219 290.307 230.219 311.758 243.42 330.734 L 515.708 717.306 C 528.908 736.276 552.01 747.006 578.415 747.006 C 604.815 747.006 627.915 736.276 641.115 717.306 Z" fill="url(#paint0_linear_453_983)" style="stroke-width: 1;"/><path d="M 639.045 -115.24 L 733.515 18.845 L 827.975 -115.24 C 841.175 -134.21 864.275 -144.94 890.705 -144.94 L 575.914 -144.94 C 602.735 -144.94 625.845 -134.21 639.045 -115.24 Z" fill="url(#paint1_linear_453_983)" style="stroke-width: 1;"/><path d="M 828.405 717.276 L 733.925 583.196 L 639.445 717.276 C 626.245 736.256 603.145 746.976 576.735 746.976 L 891.525 746.976 C 864.295 746.976 841.605 736.256 828.405 717.276 Z" fill="url(#paint2_linear_453_983)" style="stroke-width: 1;"/><path d="M 555.711 330.712 L 733.545 583.196 L 911.355 330.712 C 924.555 311.736 924.555 290.285 911.355 271.309 L 733.545 18.823 L 555.711 271.309 C 542.51 290.285 542.51 311.736 555.711 330.712 Z" fill="url(#paint3_linear_453_983)" style="stroke-width: 1;"/><path d="M 1223.62 271.331 L 951.335 -115.24 C 944.735 -124.71 935.655 -132.14 924.935 -137.09 C 914.205 -142.04 901.825 -144.94 888.625 -144.94 C 861.805 -144.94 839.105 -134.21 825.905 -115.24 L 731.445 18.845 L 909.255 271.331 C 922.455 290.307 922.455 311.758 909.255 330.734 L 731.445 583.226 L 825.905 717.306 C 839.105 736.276 862.225 747.006 888.625 747.006 C 915.435 747.006 938.135 736.276 951.335 717.306 L 1223.62 330.734 C 1236.82 311.758 1236.82 290.307 1223.62 271.331 Z" fill="url(#paint4_linear_453_983)" style="stroke-width: 1;"/></svg>